<svg xmlns="http://www.w3.org/2000/svg" width="64" height="64" viewBox="0 0 64 64" role="img" aria-label="CAVRA">
  <path d="M32 4 52 12v16c0 13-8 24-20 31C20 52 12 41 12 28V12L32 4Z" fill="#101316"/>
  <path d="M32 7 49 14v14c0 11-6 20-17 27-11-7-17-16-17-27V14L32 7Z" fill="none" stroke="#76d6b2" stroke-width="3"/>
  <path d="M40 21c-3-3-7-5-12-4-8 1-14 8-13 16s8 14 16 13c4 0 7-2 9-4" fill="none" stroke="#eef3f6" stroke-width="6" stroke-linecap="round"/>
  <path d="M25 33 31 39 42 26" fill="none" stroke="#f2c96d" stroke-width="4" stroke-linecap="round" stroke-linejoin="round"/>
</svg>
